<?xml version="1.0" standalone="no"?>
<!DOCTYPE svg PUBLIC "-//W3C//DTD SVG 20010904//EN"
 "http://www.w3.org/TR/2001/REC-SVG-20010904/DTD/svg10.dtd">
<svg version="1.0" xmlns="http://www.w3.org/2000/svg"
 width="769.000000pt" height="769.000000pt" viewBox="0 0 769.000000 769.000000"
 preserveAspectRatio="xMidYMid meet">
<metadata>
Created by potrace 1.14, written by Peter Selinger 2001-2017
</metadata>
<g transform="translate(0.000000,769.000000) scale(0.100000,-0.100000)"
fill="#000000" stroke="none">
<path d="M969 6918 c-77 -97 -226 -309 -272 -386 -18 -29 -53 -86 -78 -125
-102 -159 -238 -466 -341 -766 -102 -302 -179 -629 -203 -861 -3 -30 -8 -68
-10 -85 -3 -16 -7 -66 -11 -110 -3 -44 -9 -114 -14 -155 -8 -79 -6 -503 3
-580 3 -25 8 -79 12 -120 10 -130 54 -420 82 -540 14 -63 37 -162 50 -220 13
-58 25 -112 26 -121 2 -8 13 -31 24 -50 12 -19 42 -91 67 -160 85 -236 223
-528 359 -758 102 -175 308 -457 438 -601 88 -98 321 -329 394 -390 28 -23 61
-52 75 -64 14 -11 58 -47 97 -78 l72 -58 2097 0 2096 0 87 67 c216 169 600
536 679 649 23 33 75 103 116 156 95 126 246 367 333 533 5 11 18 35 28 54 46
88 75 147 75 155 0 5 15 43 34 85 57 126 69 155 72 174 2 9 15 43 28 75 29 69
84 247 126 402 17 63 35 133 41 155 7 22 13 69 15 105 1 36 10 104 18 152 8
47 18 115 21 150 4 34 8 68 10 75 9 28 20 297 20 498 0 199 -9 423 -20 515 -3
19 -7 55 -10 79 -3 24 -12 60 -20 79 -8 19 -15 51 -15 72 0 65 -58 338 -111
520 -17 58 -39 137 -49 177 -64 249 -393 917 -518 1051 -15 16 -78 97 -141
180 l-114 152 -2801 0 -2801 0 -66 -82z"/>
<path d="M7682 3380 c0 -14 2 -19 5 -12 2 6 2 18 0 25 -3 6 -5 1 -5 -13z"/>
<path d="M128 2933 c7 -3 16 -2 19 1 4 3 -2 6 -13 5 -11 0 -14 -3 -6 -6z"/>
<path d="M7677 2695 c-4 -8 -2 -17 3 -20 6 -4 10 3 10 14 0 25 -6 27 -13 6z"/>
<path d="M7658 2589 c-16 -20 -28 -41 -28 -47 0 -6 -7 -9 -15 -6 -10 4 -15 0
-15 -13 0 -11 -7 -28 -15 -39 -8 -10 -15 -27 -15 -37 0 -10 -5 -15 -11 -12 -6
4 -7 19 -3 38 l6 31 -43 -37 c-24 -21 -49 -35 -56 -32 -8 2 -16 -2 -19 -10 -4
-9 -19 -15 -41 -15 -19 0 -32 -4 -29 -9 3 -5 -4 -20 -15 -35 -21 -27 -19 -29
17 -27 34 3 42 -47 12 -72 -13 -10 -18 -16 -11 -13 6 4 14 2 18 -4 3 -5 11
-10 16 -10 6 0 7 5 4 10 -15 24 23 7 59 -26 34 -31 42 -34 63 -25 14 6 23 19
23 32 0 21 1 22 20 4 11 -10 20 -24 20 -32 0 -7 5 -22 12 -33 11 -16 9 -23
-10 -41 -25 -23 -58 -19 -48 6 8 21 -3 45 -18 39 -7 -3 -26 -6 -42 -8 -16 -2
-32 -4 -36 -5 -19 -3 -6 -31 13 -31 18 0 19 -2 9 -15 -11 -13 -7 -15 22 -15
25 0 46 -10 74 -33 21 -19 49 -39 62 -46 20 -11 21 -15 11 -29 -7 -9 -1 -6 14
8 l27 26 -2 299 -3 300 -27 -36z"/>
<path d="M7570 2509 c0 -5 5 -7 10 -4 6 3 10 8 10 11 0 2 -4 4 -10 4 -5 0 -10
-5 -10 -11z"/>
<path d="M7336 2463 c-6 -14 -5 -15 5 -6 7 7 10 15 7 18 -3 3 -9 -2 -12 -12z"/>
<path d="M7403 2455 c-11 -25 -7 -31 13 -17 6 4 9 15 5 24 -5 15 -8 13 -18 -7z"/>
<path d="M7360 2290 c0 -5 7 -7 15 -4 8 4 15 8 15 10 0 2 -7 4 -15 4 -8 0 -15
-4 -15 -10z"/>
<path d="M7430 2191 c0 -25 6 -27 13 -6 4 8 2 17 -3 20 -6 4 -10 -3 -10 -14z"/>
<path d="M7570 2189 c0 -5 5 -7 10 -4 6 3 10 8 10 11 0 2 -4 4 -10 4 -5 0 -10
-5 -10 -11z"/>
<path d="M7516 2047 c3 -10 9 -15 12 -12 3 3 0 11 -7 18 -10 9 -11 8 -5 -6z"/>
<path d="M7682 1965 c0 -16 2 -22 5 -12 2 9 2 23 0 30 -3 6 -5 -1 -5 -18z"/>
</g>
</svg>
