 <svg  version="1.0" xmlns="http://www.w3.org/2000/svg"  width="152.000000pt" height="208.000000pt" viewBox="0 0 152.000000 208.000000"  preserveAspectRatio="xMidYMid meet">  <g transform="translate(0.000000,208.000000) scale(0.100000,-0.100000)" fill="#0f4321" stroke="none"> <path d="M702 2062 c-18 -2 -30 -7 -27 -12 3 -4 -4 -6 -15 -3 -13 3 -20 0 -20 -8 0 -8 -19 -23 -41 -34 -45 -21 -129 -101 -129 -122 0 -7 -4 -13 -9 -13 -17 0 -44 -96 -50 -180 -11 -135 -8 -495 5 -511 6 -8 17 -30 25 -49 21 -54 86 -124 167 -181 23 -17 42 -36 42 -42 0 -26 -26 -67 -42 -67 -22 0 -32 -16 -13 -24 8 -3 17 -1 20 4 4 6 15 10 26 10 11 0 18 4 15 9 -3 4 0 22 6 39 11 28 10 33 -12 53 l-25 22 25 -6 c14 -4 50 -7 80 -8 43 -1 49 -3 30 -9 -18 -6 -8 -8 40 -9 45 0 60 2 50 9 -11 7 0 10 38 10 48 0 53 -2 47 -20 -11 -34 5 -90 26 -90 11 0 19 -7 19 -15 0 -8 5 -15 11 -15 7 0 9 9 5 23 -3 12 -6 26 -6 30 0 5 -5 5 -11 1 -16 -10 -29 15 -29 56 0 32 4 37 51 60 46 23 139 111 139 132 0 5 6 15 13 23 7 7 21 49 31 93 17 73 18 104 9 362 l-9 283 -28 23 c-15 13 -33 24 -40 24 -8 0 -16 14 -20 31 -8 40 -30 57 -86 64 -78 10 -87 14 -93 36 -4 15 -11 20 -21 16 -9 -4 -16 -2 -16 3 0 9 -92 10 -178 2z m88 -30 c0 -4 -27 -34 -60 -67 -56 -56 -73 -85 -50 -85 6 0 10 5 10 11 0 12 100 111 101 100 0 -3 4 4 9 17 10 24 50 31 50 9 0 -15 -100 -123 -101 -110 0 4 -4 -2 -9 -14 -5 -13 -16 -23 -25 -23 -8 0 -15 -4 -15 -9 0 -5 7 -8 16 -7 23 4 152 135 156 160 3 21 3 21 28 -4 18 -18 38 -25 75 -28 56 -4 95 -24 95 -49 0 -20 28 -53 45 -53 7 0 19 -8 28 -18 13 -14 16 -41 16 -127 0 -108 0 -109 -19 -89 -14 13 -20 35 -21 69 -3 88 -41 115 -166 123 -46 2 -83 6 -83 9 0 2 11 15 25 29 15 15 25 35 24 52 -1 21 -2 23 -6 7 -7 -26 -67 -85 -88 -85 -21 0 -19 27 5 47 11 10 20 22 20 28 0 6 12 16 28 23 25 10 25 11 2 6 -38 -9 -83 -63 -77 -94 l6 -25 -95 2 c-107 2 -186 -15 -217 -45 -15 -16 -21 -36 -23 -78 -1 -34 -8 -60 -16 -65 -21 -14 -23 93 -2 149 39 103 91 157 199 207 62 30 135 44 135 27z m245 -232 c44 -17 55 -35 55 -91 0 -42 5 -56 25 -75 20 -18 25 -33 25 -69 0 -28 6 -52 15 -61 16 -16 18 -35 17 -119 -4 -230 -52 -324 -202 -400 -66 -33 -74 -35 -176 -35 -97 0 -111 2 -169 30 -109 52 -176 148 -193 273 -9 71 -2 77 18 14 24 -76 108 -141 173 -135 30 3 32 5 35 50 2 38 9 52 33 72 28 24 34 25 117 19 102 -6 117 -17 127 -88 10 -63 33 -71 100 -37 58 29 80 52 106 107 19 41 24 126 13 198 -13 75 -24 34 -22 -79 2 -100 0 -118 -15 -129 -9 -7 -17 -16 -17 -21 0 -15 -54 -55 -82 -61 -16 -3 -28 -9 -28 -14 0 -5 -8 -9 -17 -9 -15 0 -18 9 -19 48 -1 58 -35 102 -80 102 -22 0 -26 3 -14 10 11 7 3 10 -30 10 -26 0 -52 -6 -59 -12 -11 -10 -13 -10 -7 0 5 8 0 12 -13 12 -12 0 -21 -4 -21 -10 0 -5 -9 -10 -20 -10 -21 0 -72 -49 -64 -62 3 -4 0 -8 -5 -8 -15 0 -14 -67 2 -73 6 -3 -1 -6 -16 -6 -16 -1 -26 3 -22 9 3 5 -3 10 -15 10 -54 0 -120 70 -120 127 0 22 -2 25 -10 13 -7 -11 -10 -5 -10 23 0 20 5 37 10 37 6 0 9 35 8 88 -1 79 -2 82 -8 32 -5 -46 -7 -50 -11 -25 -4 20 -7 9 -8 -32 0 -35 -5 -63 -11 -63 -15 0 -12 86 5 127 8 19 15 54 15 76 0 31 6 46 30 69 26 24 30 35 30 81 0 62 7 75 46 87 41 12 447 12 479 0z m-578 -412 c-3 -7 -5 -2 -5 12 0 14 2 19 5 13 2 -7 2 -19 0 -25z"/> <path d="M515 1599 c-4 -5 -4 -21 -1 -35 6 -23 9 -24 96 -24 78 0 91 2 100 19 22 42 5 51 -95 51 -55 0 -97 -4 -100 -11z m157 -21 c7 -4 -20 -8 -62 -8 -53 0 -71 3 -60 10 17 12 103 10 122 -2z"/> <path d="M880 1581 c0 -17 6 -31 16 -35 28 -11 174 -7 174 5 0 5 5 7 10 4 6 -3 10 5 10 18 0 33 -15 37 -121 37 l-89 0 0 -29z m155 -6 c6 -2 -18 -4 -53 -4 -35 -1 -61 3 -58 8 5 8 85 5 111 -4z"/> <path d="M578 1468 c-27 -28 -22 -61 12 -81 28 -17 31 -17 55 -1 33 21 34 68 3 86 -32 18 -50 17 -70 -4z m59 -21 c17 -11 5 -37 -17 -37 -22 0 -34 16 -27 35 6 14 23 15 44 2z"/> <path d="M943 1473 c-33 -22 -30 -66 4 -88 24 -16 28 -16 52 -2 32 19 39 61 15 88 -20 23 -41 23 -71 2z m57 -43 c0 -24 -25 -33 -40 -14 -10 11 -10 17 0 28 15 19 40 10 40 -14z"/> <path d="M761 1341 c-16 -14 -19 -21 -10 -21 8 0 20 5 27 12 9 9 18 9 38 -1 29 -13 37 -11 26 6 -14 23 -57 25 -81 4z"/> <path d="M706 1237 c-22 -22 -26 -35 -26 -87 0 -47 4 -64 20 -80 25 -25 50 -25 77 -1 21 20 21 20 39 0 22 -24 56 -25 77 -1 12 13 17 37 17 84 0 86 -16 101 -110 106 -63 4 -71 2 -94 -21z m177 -17 c21 -25 23 -115 3 -136 -16 -15 -71 -20 -62 -5 4 5 1 11 -5 13 -9 3 -9 9 0 26 11 20 10 22 -19 22 -24 0 -31 -4 -29 -17 4 -45 -1 -53 -32 -53 -17 0 -28 4 -24 10 3 6 1 10 -4 10 -18 0 -13 111 6 132 24 27 142 26 166 -2z"/> <path d="M732 1198 c13 -39 109 -44 129 -7 12 23 1 24 -25 4 -25 -19 -53 -19 -72 0 -19 18 -37 20 -32 3z"/> <path d="M346 1418 c-23 -32 -20 -90 5 -122 26 -34 45 -34 23 0 -20 30 -26 91 -12 117 14 28 2 32 -16 5z"/> <path d="M900 820 c0 -5 5 -10 10 -10 6 0 10 5 10 10 0 6 -4 10 -10 10 -5 0 -10 -4 -10 -10z"/> <path d="M467 809 c-62 -9 -139 -42 -169 -71 -10 -10 -21 -18 -26 -18 -14 0 -73 -101 -92 -158 -21 -61 -28 -202 -10 -202 6 0 10 -7 10 -15 0 -12 19 -15 115 -15 70 0 115 4 115 10 0 6 4 10 9 10 5 0 8 -8 7 -17 -3 -18 4 -29 38 -63 19 -19 36 -20 329 -20 193 0 316 4 328 10 10 6 19 20 19 30 0 11 7 20 15 20 8 0 15 9 15 20 0 12 7 20 18 20 14 0 15 -2 2 -10 -10 -7 22 -10 101 -10 113 0 116 1 129 25 21 38 7 198 -22 255 -23 47 -50 82 -82 109 -10 9 -24 21 -31 28 -32 31 -99 55 -170 62 -57 5 -78 4 -87 -6 -6 -7 -14 -13 -19 -13 -17 0 -47 -38 -54 -69 -4 -17 -12 -34 -18 -38 -7 -5 -16 -16 -22 -26 -19 -35 -58 -50 -109 -43 -37 6 -55 16 -94 55 -26 26 -56 59 -67 74 -11 15 -26 27 -34 27 -8 0 -11 3 -8 7 9 8 -43 43 -63 42 -8 -1 -41 -5 -73 -10z m53 -34 c0 -8 4 -15 9 -15 10 0 92 -51 159 -99 26 -18 39 -31 29 -27 -23 7 -69 -37 -61 -58 15 -38 84 -17 84 27 1 21 1 21 15 3 12 -16 23 -18 62 -13 55 6 103 -1 103 -15 0 -5 -15 -8 -32 -6 -33 3 -33 3 -36 -47 -4 -54 -13 -65 -54 -65 -44 0 -58 10 -58 41 0 35 27 40 32 7 2 -15 10 -23 23 -23 16 0 21 9 26 43 4 35 3 42 -12 42 -10 0 -26 3 -36 7 -16 6 -16 4 2 -17 l20 -23 -21 7 c-39 12 -70 -43 -46 -81 12 -19 61 -34 88 -27 13 4 31 16 39 27 14 20 15 19 15 -25 0 -39 3 -46 23 -51 20 -5 20 -5 5 7 -12 9 -18 27 -18 54 0 29 5 44 18 51 15 9 15 10 -5 11 -18 0 -23 6 -23 25 0 17 4 23 14 19 26 -10 53 13 54 46 0 16 -4 30 -11 30 -6 0 -2 9 9 20 10 10 28 31 39 45 11 13 25 25 30 25 6 0 18 8 27 18 51 52 49 51 119 38 80 -15 152 -64 198 -133 36 -54 48 -94 53 -180 l4 -63 -98 0 c-59 0 -98 -4 -98 -10 0 -9 119 -16 173 -11 9 1 17 -3 17 -8 0 -7 -40 -11 -115 -11 -124 0 -120 -2 -115 58 1 12 -3 22 -8 22 -5 0 -10 -20 -10 -45 -1 -54 -10 -73 -24 -54 -7 10 -8 6 -4 -12 3 -16 1 -31 -7 -37 -13 -11 -534 -17 -603 -6 l-42 6 5 74 6 74 -27 0 c-24 0 -26 -3 -26 -40 l0 -40 -121 0 c-77 0 -118 4 -114 10 3 6 46 10 96 10 121 0 114 19 -8 22 l-97 3 3 49 c7 122 64 226 155 284 73 46 176 68 176 37z m83 -18 c16 -10 26 -21 23 -24 -7 -7 -76 37 -76 48 0 11 9 7 53 -24z m422 -2 c-39 -30 -49 -21 -11 11 15 14 31 22 34 19 4 -3 -7 -17 -23 -30z m-305 -161 c0 -20 -29 -30 -43 -15 -9 10 -8 16 7 26 21 16 36 11 36 -11z m205 16 c3 -5 -3 -10 -15 -10 -12 0 -18 5 -15 10 3 6 10 10 15 10 5 0 12 -4 15 -10z m-465 -232 c0 -34 -3 -48 -9 -39 -12 18 -12 91 0 91 5 0 9 -24 9 -52z m-162 -35 c-10 -2 -28 -2 -40 0 -13 2 -5 4 17 4 22 1 32 -1 23 -4z m59 1 c-3 -3 -12 -4 -19 -1 -8 3 -5 6 6 6 11 1 17 -2 13 -5z m946 -1 c-7 -2 -19 -2 -25 0 -7 3 -2 5 12 5 14 0 19 -2 13 -5z"/> <path d="M627 641 c4 -15 0 -18 -19 -14 -16 3 -30 -3 -43 -17 -27 -30 -10 -55 37 -55 29 0 35 4 35 20 -1 11 3 35 7 53 6 25 4 32 -7 32 -10 0 -13 -7 -10 -19z m-10 -37 c6 -16 -12 -34 -34 -34 -16 0 -17 22 -1 38 16 16 27 15 35 -4z"/> <path d="M1090 645 c15 -18 4 -75 -16 -75 -8 0 -14 -4 -14 -9 0 -6 16 -9 35 -8 19 2 34 7 33 12 -2 6 -6 9 -10 8 -11 -4 -10 15 1 55 9 30 8 32 -16 32 -21 0 -23 -2 -13 -15z"/> <path d="M1204 645 c-4 -8 -13 -15 -21 -15 -12 0 -13 -3 -4 -14 12 -14 5 -46 -10 -46 -5 0 -9 -4 -9 -8 0 -4 16 -8 35 -8 22 0 35 5 35 13 0 7 -7 10 -15 7 -16 -6 -19 4 -9 30 3 8 12 12 20 9 8 -3 14 0 14 6 0 6 -7 11 -16 11 -8 0 -12 5 -9 11 4 6 13 8 21 5 8 -3 14 -1 14 4 0 16 -40 11 -46 -5z"/> <path d="M367 598 c-16 -39 -4 -53 38 -42 30 7 33 34 5 41 -11 3 -20 10 -20 15 0 6 11 7 25 4 14 -4 25 -2 25 4 0 5 -13 10 -30 10 -24 0 -32 -6 -43 -32z m43 -18 c0 -5 -6 -10 -14 -10 -8 0 -18 5 -21 10 -3 6 3 10 14 10 12 0 21 -4 21 -10z"/> <path d="M463 593 c2 -36 4 -38 36 -37 31 0 34 3 37 37 2 27 -1 37 -11 37 -9 0 -13 -10 -12 -27 1 -20 -3 -28 -17 -31 -16 -3 -18 0 -13 27 5 23 3 31 -7 31 -10 0 -14 -12 -13 -37z"/> <path d="M972 618 c-33 -33 1 -78 48 -63 31 10 24 22 -10 17 -18 -3 -30 0 -30 7 0 6 16 11 35 11 19 0 35 4 35 8 0 15 -24 32 -45 32 -12 0 -26 -5 -33 -12z m48 -8 c0 -5 -7 -10 -15 -10 -8 0 -15 5 -15 10 0 6 7 10 15 10 8 0 15 -4 15 -10z"/> <path d="M957 503 c41 -4 41 -4 45 -49 2 -29 -2 -49 -11 -59 -12 -12 -11 -13 7 -8 19 5 22 12 22 64 l0 59 -52 -2 c-49 -1 -50 -2 -11 -5z"/> <path d="M448 453 c7 -3 16 -2 19 1 4 3 -2 6 -13 5 -11 0 -14 -3 -6 -6z"/> <path d="M1121 374 c0 -11 3 -14 6 -6 3 7 2 16 -1 19 -3 4 -6 -2 -5 -13z"/> <path d="M925 370 c-3 -5 3 -10 14 -10 12 0 21 5 21 10 0 6 -6 10 -14 10 -8 0 -18 -4 -21 -10z"/> <path d="M785 810 l-80 -6 88 -2 c57 -1 86 2 82 8 -3 6 -7 9 -8 8 -1 -1 -38 -5 -82 -8z"/> <path d="M690 744 c0 -5 8 -19 19 -30 53 -55 100 -79 135 -68 26 8 66 45 66 61 0 7 7 16 16 21 13 7 14 11 4 17 -7 4 -16 2 -21 -6 -12 -20 -196 -19 -209 1 -5 8 -10 10 -10 4z m190 -44 c0 -5 -17 -9 -37 -9 l-38 2 35 7 c19 4 36 8 38 9 1 0 2 -3 2 -9z"/> <path d="M190 301 c0 -20 5 -21 95 -21 57 0 95 4 95 10 0 9 -93 16 -143 10 -10 -1 -25 4 -33 10 -11 10 -14 9 -14 -9z"/> <path d="M1395 310 c-3 -6 -49 -10 -103 -10 -53 0 -104 -5 -112 -10 -10 -7 25 -10 108 -10 115 0 122 1 122 20 0 22 -5 26 -15 10z"/> </g> </svg> 