<svg width="424.45625px" height="121.39999999999999px" xmlns="http://www.w3.org/2000/svg" viewBox="37.771874999999994 14.300000000000004 424.45625 121.39999999999999" style="background: none;" preserveAspectRatio="xMidYMid"><defs><filter id="editing-vintage" x="-100%" y="-100%" width="300%" height="300%"><feConvolveMatrix in="SourceGraphic" result="extrude" order="1,1" divisor="1" kernelMatrix="1"> </feConvolveMatrix><feFlood flood-color="#070606" result="flood-extrude"></feFlood><feComposite operator="in" in="flood-extrude" in2="extrude" result="extrude-color"></feComposite><feOffset dx="1" dy="1" in="extrude-color" result="extrude-offset"></feOffset><feColorMatrix in="SourceGraphic" result="stroke" type="matrix" values="0 0 0 0 0 0 0 0 0 0 0 0 0 0 0 0 1 0 0 0 "></feColorMatrix><feColorMatrix in="SourceGraphic" result="fill" type="matrix" values="0 0 0 0 0 0 0 0 0 0 0 0 0 0 0 1 0 0 1 0 "></feColorMatrix><feConvolveMatrix in="stroke" result="inner-shadow" order="5,5" divisor="1" kernelMatrix="1 0 0 0 0 0 1 0 0 0 0 0 1 0 0 0 0 0 1 0 0 0 0 0 1 "></feConvolveMatrix><feOffset dx="1" dy="1" in="inner-shadow" result="offset"></feOffset><feComposite operator="in" in="offset" in2="SourceAlpha" result="comp"></feComposite><feFlood flood-color="#200101" result="flood3"></feFlood><feComposite operator="in" in="flood3" in2="comp" result="comp2"></feComposite><feColorMatrix in="comp2" result="comp3" type="matrix" values="1 0 0 0 0 0 1 0 0 0 0 0 1 0 0 0 0 0 0.5 0 "></feColorMatrix><feFlood flood-color="rgba(7.633928571428584%,7.149966307277639%,7.149966307277639%,0.918)" result="flood1"></feFlood><feComposite operator="in" in="flood1" in2="fill" result="fill2"></feComposite><feFlood flood-color="#fff" result="flood2"></feFlood><feComposite operator="in" in="flood2" in2="stroke" result="stroke2"></feComposite><feMerge result="obj"><feMergeNode in="extrude-offset"></feMergeNode><feMergeNode in="fill2"></feMergeNode><feMergeNode in="comp3"></feMergeNode></feMerge><feConvolveMatrix in="SourceAlpha" result="shadow" order="1,1" divisor="1" kernelMatrix="1"></feConvolveMatrix><feOffset dx="3" dy="3" in="shadow" result="shadow-offset"></feOffset><feFlood flood-color="#444444" result="flood-shadow"></feFlood><feComposite operator="in" in="flood-shadow" in2="shadow-offset" result="shadow-color"></feComposite><feMerge><feMergeNode in="shadow-color"></feMergeNode><feMergeNode in="obj"></feMergeNode></feMerge></filter></defs><g transform="translate(-1,-1)"><g filter="url(#editing-vintage)"><g transform="translate(107.63106107711792, 98.68000221252441)"><path d="M20.22-22.46L20.22-22.46L20.22-22.46Q21.12-24.83 21.12-26.88L21.12-26.88L21.12-26.88Q21.12-30.66 18.05-30.66L18.05-30.66L18.05-30.66Q16.45-30.66 15.14-29.22L15.14-29.22L15.14-29.22Q13.82-27.78 13.82-25.98L13.82-25.98L13.82-25.98Q13.82-24.70 14.85-23.68L14.85-23.68L14.85-23.68Q16.32-22.27 20.10-19.97L20.10-19.97L20.10-19.97Q23.87-17.66 25.31-15.78L25.31-15.78L25.31-15.78Q26.75-13.89 26.75-11.30L26.75-11.30L26.75-11.30Q26.75-8.70 25.50-6.34L25.50-6.34L25.50-6.34Q24.26-3.97 22.02-2.30L22.02-2.30L22.02-2.30Q17.22 1.28 9.54 1.28L9.54 1.28L9.54 1.28Q5.38 1.28 2.18-0.90L2.18-0.90L2.18-0.90Q-1.02-3.01-1.02-5.50L-1.02-5.50L-1.02-5.50Q-1.02-8 0.80-9.47L0.80-9.47L0.80-9.47Q2.62-10.94 5.31-10.94L5.31-10.94L5.31-10.94Q8-10.94 9.66-9.92L9.66-9.92L9.66-9.92Q8.83-7.81 8.83-6.40L8.83-6.40L8.83-6.40Q8.83-2.18 12.42-2.18L12.42-2.18L12.42-2.18Q13.95-2.18 14.98-3.14L14.98-3.14L14.98-3.14Q16-4.10 16-5.76L16-5.76L16-5.76Q16-9.02 10.50-12.48L10.50-12.48L10.50-12.48Q6.02-15.42 4.99-16.58L4.99-16.58L4.99-16.58Q3.26-18.62 3.26-21.18L3.26-21.18L3.26-21.18Q3.26-23.74 4.48-26.18L4.48-26.18L4.48-26.18Q5.70-28.61 7.94-30.34L7.94-30.34L7.94-30.34Q12.61-33.92 20.74-33.92L20.74-33.92L20.74-33.92Q24.90-33.92 27.36-32.26L27.36-32.26L27.36-32.26Q29.82-30.59 29.82-27.78L29.82-27.78L29.82-27.78Q29.82-24.96 28.13-23.36L28.13-23.36L28.13-23.36Q26.43-21.76 23.36-21.76L23.36-21.76L23.36-21.76Q21.25-21.76 20.22-22.46ZM52.74-2.69L52.74-2.69L52.74-2.69Q49.66 1.28 42.05 1.28L42.05 1.28L42.05 1.28Q38.08 1.28 35.20-1.12L35.20-1.12L35.20-1.12Q32.32-3.52 32.32-6.98L32.32-6.98L32.32-6.98Q32.32-8.90 32.51-9.86L32.51-9.86L36.80-32.64L49.79-33.92L45.12-9.22L45.12-9.22Q44.86-7.81 44.86-6.98L44.86-6.98L44.86-6.98Q44.86-3.26 47.10-3.26L47.10-3.26L47.10-3.26Q49.60-3.26 51.39-6.66L51.39-6.66L51.39-6.66Q51.97-7.74 52.22-9.15L52.22-9.15L56.77-32.64L69.38-33.92L64.64-8.96L64.64-8.96Q64.45-8 64.45-6.98L64.45-6.98L64.45-6.98Q64.45-5.95 65.02-4.83L65.02-4.83L65.02-4.83Q65.60-3.71 67.46-3.46L67.46-3.46L67.46-3.46Q67.07-1.92 65.73-0.90L65.73-0.90L65.73-0.90Q62.91 1.28 59.87 1.28L59.87 1.28L59.87 1.28Q56.83 1.28 55.04 0.19L55.04 0.19L55.04 0.19Q53.25-0.90 52.74-2.69ZM92.74-33.92L92.74-33.92L92.74-33.92Q95.04-33.92 96.83-33.41L96.83-33.41L96.83-33.41Q96.90-33.66 97.02-34.37L97.02-34.37L97.34-36.35L97.34-36.35Q97.60-37.63 97.98-39.74L97.98-39.74L99.01-44.80L111.74-46.08L104.64-8.96L104.64-8.96Q104.58-8.58 104.58-7.94L104.58-7.94L104.58-6.91L104.58-6.91Q104.58-5.50 105.28-4.45L105.28-4.45L105.28-4.45Q105.98-3.39 107.14-3.39L107.14-3.39L107.14-3.39Q105.86-0.38 101.95 0.90L101.95 0.90L101.95 0.90Q100.61 1.28 98.72 1.28L98.72 1.28L98.72 1.28Q96.83 1.28 95.10 0.29L95.10 0.29L95.10 0.29Q93.38-0.70 92.86-2.37L92.86-2.37L92.86-2.37Q91.84-0.70 89.79 0.29L89.79 0.29L89.79 0.29Q87.74 1.28 84.77 1.28L84.77 1.28L84.77 1.28Q81.79 1.28 79.33 0.51L79.33 0.51L79.33 0.51Q76.86-0.26 75.33-1.92L75.33-1.92L75.33-1.92Q72.51-5.18 72.51-12.61L72.51-12.61L72.51-12.61Q72.51-22.21 78.14-28.03L78.14-28.03L78.14-28.03Q83.78-33.92 92.74-33.92ZM92.29-30.08L92.29-30.08L92.29-30.08Q89.92-30.08 88.64-27.52L88.64-27.52L88.64-27.52Q87.36-24.96 86.05-18.62L86.05-18.62L86.05-18.62Q84.74-12.29 84.74-6.59L84.74-6.59L84.74-6.59Q84.74-2.69 87.04-2.69L87.04-2.69L87.04-2.69Q89.09-2.69 90.53-4.74L90.53-4.74L90.53-4.74Q91.97-6.78 92.54-10.18L92.54-10.18L96-28.93L96-28.93Q94.66-30.08 92.29-30.08ZM126.53 1.28L126.53 1.28L126.53 1.28Q112.45 1.28 112.45-11.97L112.45-11.97L112.45-11.97Q112.45-21.38 117.63-27.46L117.63-27.46L117.63-27.46Q123.14-33.92 132.67-33.92L132.67-33.92L132.67-33.92Q139.58-33.92 143.10-30.72L143.10-30.72L143.10-30.72Q146.62-27.52 146.62-20.80L146.62-20.80L146.62-20.80Q146.62-10.56 141.12-4.61L141.12-4.61L141.12-4.61Q135.74 1.28 126.53 1.28ZM128.19-26.56L128.19-26.56L128.19-26.56Q127.42-24.83 126.82-22.24L126.82-22.24L126.82-22.24Q126.21-19.65 125.44-15.55L125.44-15.55L125.44-15.55Q124.67-11.46 124.67-6.40L124.67-6.40L124.67-6.40Q124.67-4.74 125.22-3.65L125.22-3.65L125.22-3.65Q125.76-2.56 127.23-2.56L127.23-2.56L127.23-2.56Q128.70-2.56 129.63-3.26L129.63-3.26L129.63-3.26Q130.56-3.97 131.26-5.63L131.26-5.63L131.26-5.63Q132.54-8.58 133.57-14.05L133.57-14.05L133.57-14.05Q134.59-19.52 134.69-21.89L134.69-21.89L134.69-21.89Q134.78-24.26 134.78-26.02L134.78-26.02L134.78-26.02Q134.78-27.78 134.27-28.93L134.27-28.93L134.27-28.93Q133.76-30.08 132.32-30.08L132.32-30.08L132.32-30.08Q130.88-30.08 129.92-29.18L129.92-29.18L129.92-29.18Q128.96-28.29 128.19-26.56ZM152.77-10.37L152.77-10.37L152.77-10.37Q150.72-11.84 150.72-14.66L150.72-14.66L150.72-14.66Q150.72-16.19 151.49-17.44L151.49-17.44L151.49-17.44Q152.26-18.69 153.79-18.88L153.79-18.88L166.40-18.88L166.40-18.88Q168.51-18.88 169.15-20.16L169.15-20.16L169.15-20.16Q170.18-19.58 170.62-18.37L170.62-18.37L170.62-18.37Q171.07-17.15 171.07-15.87L171.07-15.87L171.07-15.87Q171.07-14.59 170.08-13.34L170.08-13.34L170.08-13.34Q169.09-12.10 167.62-11.97L167.62-11.97L155.90-11.97L155.90-11.97Q154.56-11.97 153.92-11.55L153.92-11.55L153.92-11.55Q153.28-11.14 152.77-10.37ZM194.62-22.46L194.62-22.46L194.62-22.46Q195.52-24.83 195.52-26.88L195.52-26.88L195.52-26.88Q195.52-30.66 192.45-30.66L192.45-30.66L192.45-30.66Q190.85-30.66 189.54-29.22L189.54-29.22L189.54-29.22Q188.22-27.78 188.22-25.98L188.22-25.98L188.22-25.98Q188.22-24.70 189.25-23.68L189.25-23.68L189.25-23.68Q190.72-22.27 194.50-19.97L194.50-19.97L194.50-19.97Q198.27-17.66 199.71-15.78L199.71-15.78L199.71-15.78Q201.15-13.89 201.15-11.30L201.15-11.30L201.15-11.30Q201.15-8.70 199.90-6.34L199.90-6.34L199.90-6.34Q198.66-3.97 196.42-2.30L196.42-2.30L196.42-2.30Q191.62 1.28 183.94 1.28L183.94 1.28L183.94 1.28Q179.78 1.28 176.58-0.90L176.58-0.90L176.58-0.90Q173.38-3.01 173.38-5.50L173.38-5.50L173.38-5.50Q173.38-8 175.20-9.47L175.20-9.47L175.20-9.47Q177.02-10.94 179.71-10.94L179.71-10.94L179.71-10.94Q182.40-10.94 184.06-9.92L184.06-9.92L184.06-9.92Q183.23-7.81 183.23-6.40L183.23-6.40L183.23-6.40Q183.23-2.18 186.82-2.18L186.82-2.18L186.82-2.18Q188.35-2.18 189.38-3.14L189.38-3.14L189.38-3.14Q190.40-4.10 190.40-5.76L190.40-5.76L190.40-5.76Q190.40-9.02 184.90-12.48L184.90-12.48L184.90-12.48Q180.42-15.42 179.39-16.58L179.39-16.58L179.39-16.58Q177.66-18.62 177.66-21.18L177.66-21.18L177.66-21.18Q177.66-23.74 178.88-26.18L178.88-26.18L178.88-26.18Q180.10-28.61 182.34-30.34L182.34-30.34L182.34-30.34Q187.01-33.92 195.14-33.92L195.14-33.92L195.14-33.92Q199.30-33.92 201.76-32.26L201.76-32.26L201.76-32.26Q204.22-30.59 204.22-27.78L204.22-27.78L204.22-27.78Q204.22-24.96 202.53-23.36L202.53-23.36L202.53-23.36Q200.83-21.76 197.76-21.76L197.76-21.76L197.76-21.76Q195.65-21.76 194.62-22.46ZM232.51-10.82L232.51-10.82L232.51-10.82Q234.11-9.73 234.11-7.33L234.11-7.33L234.11-7.33Q234.11-4.93 232.90-3.39L232.90-3.39L232.90-3.39Q231.68-1.86 229.70-0.83L229.70-0.83L229.70-0.83Q225.60 1.28 221.18 1.28L221.18 1.28L221.18 1.28Q216.77 1.28 214.18 0.32L214.18 0.32L214.18 0.32Q211.58-0.64 209.86-2.43L209.86-2.43L209.86-2.43Q206.46-5.82 206.46-12.03L206.46-12.03L206.46-12.03Q206.46-21.70 211.71-27.58L211.71-27.58L211.71-27.58Q217.34-33.92 227.14-33.92L227.14-33.92L227.14-33.92Q233.22-33.92 236.22-31.36L236.22-31.36L236.22-31.36Q238.46-29.44 238.46-26.30L238.46-26.30L238.46-26.30Q238.46-15.04 219.01-15.04L219.01-15.04L219.01-15.04Q218.75-13.38 218.75-11.97L218.75-11.97L218.75-11.97Q218.75-9.02 220.06-7.90L220.06-7.90L220.06-7.90Q221.38-6.78 223.81-6.78L223.81-6.78L223.81-6.78Q226.24-6.78 228.83-7.90L228.83-7.90L228.83-7.90Q231.42-9.02 232.51-10.82ZM219.46-17.79L219.46-17.79L219.46-17.79Q224.00-17.79 226.62-20.61L226.62-20.61L226.62-20.61Q229.25-23.30 229.25-27.58L229.25-27.58L229.25-27.58Q229.25-29.06 228.70-29.86L228.70-29.86L228.70-29.86Q228.16-30.66 227.07-30.66L227.07-30.66L227.07-30.66Q225.98-30.66 225.06-30.24L225.06-30.24L225.06-30.24Q224.13-29.82 223.17-28.42L223.17-28.42L223.17-28.42Q220.80-25.22 219.46-17.79ZM255.94-3.52L255.94-3.52L255.94-3.52Q253.95 1.28 247.62 1.28L247.62 1.28L247.62 1.28Q244.42 1.28 242.37-0.96L242.37-0.96L242.37-0.96Q240.70-2.82 240.70-4.93L240.70-4.93L240.70-4.93Q240.70-9.73 242.94-20.22L242.94-20.22L247.62-44.80L260.61-46.08L254.40-13.70L254.40-13.70Q253.31-8.96 253.31-7.30L253.31-7.30L253.31-7.30Q253.31-3.65 255.94-3.52ZM286.34-37.12L286.34-37.12L286.34-37.12Q287.23-38.66 287.23-40.32L287.23-40.32L287.23-40.32Q287.23-43.26 285.44-43.26L285.44-43.26L285.44-43.26Q282.69-43.26 281.54-37.63L281.54-37.63L280.58-32.64L286.40-32.64L286.02-29.76L280-29.76L274.24 0L261.31 1.28L267.46-29.76L262.91-29.76L263.49-32.64L267.97-32.64L269.31-37.70L269.31-37.70Q270.46-42.37 275.39-44.54L275.39-44.54L275.39-44.54Q278.98-46.08 284.99-46.08L284.99-46.08L284.99-46.08Q291.01-46.08 293.70-44.54L293.70-44.54L293.70-44.54Q296.38-43.01 296.38-40.96L296.38-40.96L296.38-40.96Q296.38-38.91 294.78-37.63L294.78-37.63L294.78-37.63Q293.18-36.35 291.39-36.35L291.39-36.35L291.39-36.35Q287.87-36.35 286.34-37.12Z" fill="#f00" stroke="#0f0" stroke-width="1.8"></path></g></g><g><g transform="translate(107.62916898727417, 98.67999839782715)"><path d="M20.22-22.46L20.22-22.46L20.22-22.46Q21.12-24.83 21.12-26.88L21.12-26.88L21.12-26.88Q21.12-30.66 18.05-30.66L18.05-30.66L18.05-30.66Q16.45-30.66 15.14-29.22L15.14-29.22L15.14-29.22Q13.82-27.78 13.82-25.98L13.82-25.98L13.82-25.98Q13.82-24.70 14.85-23.68L14.85-23.68L14.85-23.68Q16.32-22.27 20.10-19.97L20.10-19.97L20.10-19.97Q23.87-17.66 25.31-15.78L25.31-15.78L25.31-15.78Q26.75-13.89 26.75-11.30L26.75-11.30L26.75-11.30Q26.75-8.70 25.50-6.34L25.50-6.34L25.50-6.34Q24.26-3.97 22.02-2.30L22.02-2.30L22.02-2.30Q17.22 1.28 9.54 1.28L9.54 1.28L9.54 1.28Q5.38 1.28 2.18-0.90L2.18-0.90L2.18-0.90Q-1.02-3.01-1.02-5.50L-1.02-5.50L-1.02-5.50Q-1.02-8 0.80-9.47L0.80-9.47L0.80-9.47Q2.62-10.94 5.31-10.94L5.31-10.94L5.31-10.94Q8-10.94 9.66-9.92L9.66-9.92L9.66-9.92Q8.83-7.81 8.83-6.40L8.83-6.40L8.83-6.40Q8.83-2.18 12.42-2.18L12.42-2.18L12.42-2.18Q13.95-2.18 14.98-3.14L14.98-3.14L14.98-3.14Q16-4.10 16-5.76L16-5.76L16-5.76Q16-9.02 10.50-12.48L10.50-12.48L10.50-12.48Q6.02-15.42 4.99-16.58L4.99-16.58L4.99-16.58Q3.26-18.62 3.26-21.18L3.26-21.18L3.26-21.18Q3.26-23.74 4.48-26.18L4.48-26.18L4.48-26.18Q5.70-28.61 7.94-30.34L7.94-30.34L7.94-30.34Q12.61-33.92 20.74-33.92L20.74-33.92L20.74-33.92Q24.90-33.92 27.36-32.26L27.36-32.26L27.36-32.26Q29.82-30.59 29.82-27.78L29.82-27.78L29.82-27.78Q29.82-24.96 28.13-23.36L28.13-23.36L28.13-23.36Q26.43-21.76 23.36-21.76L23.36-21.76L23.36-21.76Q21.25-21.76 20.22-22.46ZM52.74-2.69L52.74-2.69L52.74-2.69Q49.66 1.28 42.05 1.28L42.05 1.28L42.05 1.28Q38.08 1.28 35.20-1.12L35.20-1.12L35.20-1.12Q32.32-3.52 32.32-6.98L32.32-6.98L32.32-6.98Q32.32-8.90 32.51-9.86L32.51-9.86L36.80-32.64L49.79-33.92L45.12-9.22L45.12-9.22Q44.86-7.81 44.86-6.98L44.86-6.98L44.86-6.98Q44.86-3.26 47.10-3.26L47.10-3.26L47.10-3.26Q49.60-3.26 51.39-6.66L51.39-6.66L51.39-6.66Q51.97-7.74 52.22-9.15L52.22-9.15L56.77-32.64L69.38-33.92L64.64-8.96L64.64-8.96Q64.45-8 64.45-6.98L64.45-6.98L64.45-6.98Q64.45-5.95 65.02-4.83L65.02-4.83L65.02-4.83Q65.60-3.71 67.46-3.46L67.46-3.46L67.46-3.46Q67.07-1.92 65.73-0.90L65.73-0.90L65.73-0.90Q62.91 1.28 59.87 1.28L59.87 1.28L59.87 1.28Q56.83 1.28 55.04 0.19L55.04 0.19L55.04 0.19Q53.25-0.90 52.74-2.69ZM92.74-33.92L92.74-33.92L92.74-33.92Q95.04-33.92 96.83-33.41L96.83-33.41L96.83-33.41Q96.90-33.66 97.02-34.37L97.02-34.37L97.34-36.35L97.34-36.35Q97.60-37.63 97.98-39.74L97.98-39.74L99.01-44.80L111.74-46.08L104.64-8.96L104.64-8.96Q104.58-8.58 104.58-7.94L104.58-7.94L104.58-6.91L104.58-6.91Q104.58-5.50 105.28-4.45L105.28-4.45L105.28-4.45Q105.98-3.39 107.14-3.39L107.14-3.39L107.14-3.39Q105.86-0.38 101.95 0.90L101.95 0.90L101.95 0.90Q100.61 1.28 98.72 1.28L98.72 1.28L98.72 1.28Q96.83 1.28 95.10 0.29L95.10 0.29L95.10 0.29Q93.38-0.70 92.86-2.37L92.86-2.37L92.86-2.37Q91.84-0.70 89.79 0.29L89.79 0.29L89.79 0.29Q87.74 1.28 84.77 1.28L84.77 1.28L84.77 1.28Q81.79 1.28 79.33 0.51L79.33 0.51L79.33 0.51Q76.86-0.26 75.33-1.92L75.33-1.92L75.33-1.92Q72.51-5.18 72.51-12.61L72.51-12.61L72.51-12.61Q72.51-22.21 78.14-28.03L78.14-28.03L78.14-28.03Q83.78-33.92 92.74-33.92ZM92.29-30.08L92.29-30.08L92.29-30.08Q89.92-30.08 88.64-27.52L88.64-27.52L88.64-27.52Q87.36-24.96 86.05-18.62L86.05-18.62L86.05-18.62Q84.74-12.29 84.74-6.59L84.74-6.59L84.74-6.59Q84.74-2.69 87.04-2.69L87.04-2.69L87.04-2.69Q89.09-2.69 90.53-4.74L90.53-4.74L90.53-4.74Q91.97-6.78 92.54-10.18L92.54-10.18L96-28.93L96-28.93Q94.66-30.08 92.29-30.08ZM126.53 1.28L126.53 1.28L126.53 1.28Q112.45 1.28 112.45-11.97L112.45-11.97L112.45-11.97Q112.45-21.38 117.63-27.46L117.63-27.46L117.63-27.46Q123.14-33.92 132.67-33.92L132.67-33.92L132.67-33.92Q139.58-33.92 143.10-30.72L143.10-30.72L143.10-30.72Q146.62-27.52 146.62-20.80L146.62-20.80L146.62-20.80Q146.62-10.56 141.12-4.61L141.12-4.61L141.12-4.61Q135.74 1.28 126.53 1.28ZM128.19-26.56L128.19-26.56L128.19-26.56Q127.42-24.83 126.82-22.24L126.82-22.24L126.82-22.24Q126.21-19.65 125.44-15.55L125.44-15.55L125.44-15.55Q124.67-11.46 124.67-6.40L124.67-6.40L124.67-6.40Q124.67-4.74 125.22-3.65L125.22-3.65L125.22-3.65Q125.76-2.56 127.23-2.56L127.23-2.56L127.23-2.56Q128.70-2.56 129.63-3.26L129.63-3.26L129.63-3.26Q130.56-3.97 131.26-5.63L131.26-5.63L131.26-5.63Q132.54-8.58 133.57-14.05L133.57-14.05L133.57-14.05Q134.59-19.52 134.69-21.89L134.69-21.89L134.69-21.89Q134.78-24.26 134.78-26.02L134.78-26.02L134.78-26.02Q134.78-27.78 134.27-28.93L134.27-28.93L134.27-28.93Q133.76-30.08 132.32-30.08L132.32-30.08L132.32-30.08Q130.88-30.08 129.92-29.18L129.92-29.18L129.92-29.18Q128.96-28.29 128.19-26.56ZM152.77-10.37L152.77-10.37L152.77-10.37Q150.72-11.84 150.72-14.66L150.72-14.66L150.72-14.66Q150.72-16.19 151.49-17.44L151.49-17.44L151.49-17.44Q152.26-18.69 153.79-18.88L153.79-18.88L166.40-18.88L166.40-18.88Q168.51-18.88 169.15-20.16L169.15-20.16L169.15-20.16Q170.18-19.58 170.62-18.37L170.62-18.37L170.62-18.37Q171.07-17.15 171.07-15.87L171.07-15.87L171.07-15.87Q171.07-14.59 170.08-13.34L170.08-13.34L170.08-13.34Q169.09-12.10 167.62-11.97L167.62-11.97L155.90-11.97L155.90-11.97Q154.56-11.97 153.92-11.55L153.92-11.55L153.92-11.55Q153.28-11.14 152.77-10.37ZM194.62-22.46L194.62-22.46L194.62-22.46Q195.52-24.83 195.52-26.88L195.52-26.88L195.52-26.88Q195.52-30.66 192.45-30.66L192.45-30.66L192.45-30.66Q190.85-30.66 189.54-29.22L189.54-29.22L189.54-29.22Q188.22-27.78 188.22-25.98L188.22-25.98L188.22-25.98Q188.22-24.70 189.25-23.68L189.25-23.68L189.25-23.68Q190.72-22.27 194.50-19.97L194.50-19.97L194.50-19.97Q198.27-17.66 199.71-15.78L199.71-15.78L199.71-15.78Q201.15-13.89 201.15-11.30L201.15-11.30L201.15-11.30Q201.15-8.70 199.90-6.34L199.90-6.34L199.90-6.34Q198.66-3.97 196.42-2.30L196.42-2.30L196.42-2.30Q191.62 1.28 183.94 1.28L183.94 1.28L183.94 1.28Q179.78 1.28 176.58-0.90L176.58-0.90L176.58-0.90Q173.38-3.01 173.38-5.50L173.38-5.50L173.38-5.50Q173.38-8 175.20-9.47L175.20-9.47L175.20-9.47Q177.02-10.94 179.71-10.94L179.71-10.94L179.71-10.94Q182.40-10.94 184.06-9.92L184.06-9.92L184.06-9.92Q183.23-7.81 183.23-6.40L183.23-6.40L183.23-6.40Q183.23-2.18 186.82-2.18L186.82-2.18L186.82-2.18Q188.35-2.18 189.38-3.14L189.38-3.14L189.38-3.14Q190.40-4.10 190.40-5.76L190.40-5.76L190.40-5.76Q190.40-9.02 184.90-12.48L184.90-12.48L184.90-12.48Q180.42-15.42 179.39-16.58L179.39-16.58L179.39-16.58Q177.66-18.62 177.66-21.18L177.66-21.18L177.66-21.18Q177.66-23.74 178.88-26.18L178.88-26.18L178.88-26.18Q180.10-28.61 182.34-30.34L182.34-30.34L182.34-30.34Q187.01-33.92 195.14-33.92L195.14-33.92L195.14-33.92Q199.30-33.92 201.76-32.26L201.76-32.26L201.76-32.26Q204.22-30.59 204.22-27.78L204.22-27.78L204.22-27.78Q204.22-24.96 202.53-23.36L202.53-23.36L202.53-23.36Q200.83-21.76 197.76-21.76L197.76-21.76L197.76-21.76Q195.65-21.76 194.62-22.46ZM232.51-10.82L232.51-10.82L232.51-10.82Q234.11-9.73 234.11-7.33L234.11-7.33L234.11-7.33Q234.11-4.93 232.90-3.39L232.90-3.39L232.90-3.39Q231.68-1.86 229.70-0.83L229.70-0.83L229.70-0.83Q225.60 1.28 221.18 1.28L221.18 1.28L221.18 1.28Q216.77 1.28 214.18 0.32L214.18 0.32L214.18 0.32Q211.58-0.64 209.86-2.43L209.86-2.43L209.86-2.43Q206.46-5.82 206.46-12.03L206.46-12.03L206.46-12.03Q206.46-21.70 211.71-27.58L211.71-27.58L211.71-27.58Q217.34-33.92 227.14-33.92L227.14-33.92L227.14-33.92Q233.22-33.92 236.22-31.36L236.22-31.36L236.22-31.36Q238.46-29.44 238.46-26.30L238.46-26.30L238.46-26.30Q238.46-15.04 219.01-15.04L219.01-15.04L219.01-15.04Q218.75-13.38 218.75-11.97L218.75-11.97L218.75-11.97Q218.75-9.02 220.06-7.90L220.06-7.90L220.06-7.90Q221.38-6.78 223.81-6.78L223.81-6.78L223.81-6.78Q226.24-6.78 228.83-7.90L228.83-7.90L228.83-7.90Q231.42-9.02 232.51-10.82ZM219.46-17.79L219.46-17.79L219.46-17.79Q224.00-17.79 226.62-20.61L226.62-20.61L226.62-20.61Q229.25-23.30 229.25-27.58L229.25-27.58L229.25-27.58Q229.25-29.06 228.70-29.86L228.70-29.86L228.70-29.86Q228.16-30.66 227.07-30.66L227.07-30.66L227.07-30.66Q225.98-30.66 225.06-30.24L225.06-30.24L225.06-30.24Q224.13-29.82 223.17-28.42L223.17-28.42L223.17-28.42Q220.80-25.22 219.46-17.79ZM255.94-3.52L255.94-3.52L255.94-3.52Q253.95 1.28 247.62 1.28L247.62 1.28L247.62 1.28Q244.42 1.28 242.37-0.96L242.37-0.96L242.37-0.96Q240.70-2.82 240.70-4.93L240.70-4.93L240.70-4.93Q240.70-9.73 242.94-20.22L242.94-20.22L247.62-44.80L260.61-46.08L254.40-13.70L254.40-13.70Q253.31-8.96 253.31-7.30L253.31-7.30L253.31-7.30Q253.31-3.65 255.94-3.52ZM286.34-37.12L286.34-37.12L286.34-37.12Q287.23-38.66 287.23-40.32L287.23-40.32L287.23-40.32Q287.23-43.26 285.44-43.26L285.44-43.26L285.44-43.26Q282.69-43.26 281.54-37.63L281.54-37.63L280.58-32.64L286.40-32.64L286.02-29.76L280-29.76L274.24 0L261.31 1.28L267.46-29.76L262.91-29.76L263.49-32.64L267.97-32.64L269.31-37.70L269.31-37.70Q270.46-42.37 275.39-44.54L275.39-44.54L275.39-44.54Q278.98-46.08 284.99-46.08L284.99-46.08L284.99-46.08Q291.01-46.08 293.70-44.54L293.70-44.54L293.70-44.54Q296.38-43.01 296.38-40.96L296.38-40.96L296.38-40.96Q296.38-38.91 294.78-37.63L294.78-37.63L294.78-37.63Q293.18-36.35 291.39-36.35L291.39-36.35L291.39-36.35Q287.87-36.35 286.34-37.12Z" fill="none" stroke="#f4f3f3" stroke-width="2.1"></path></g></g></g><style>text {
  font-size: 64px;
  font-family: Arial Black;
  dominant-baseline: central;
  text-anchor: middle;
}</style></svg>